<?xml version="1.0" encoding="UTF-8" standalone="no"?>
<svg
   xmlns:dc="http://purl.org/dc/elements/1.1/"
   xmlns:cc="http://creativecommons.org/ns#"
   xmlns:rdf="http://www.w3.org/1999/02/22-rdf-syntax-ns#"
   xmlns:svg="http://www.w3.org/2000/svg"
   xmlns="http://www.w3.org/2000/svg"
   viewBox="0 0 842.08749 79.508751"
   height="79.508751"
   width="842.08752"
   xml:space="preserve"
   version="1.1"
   id="svg2"><metadata
     id="metadata8"><rdf:RDF><cc:Work
         rdf:about=""><dc:format>image/svg+xml</dc:format><dc:type
           rdf:resource="http://purl.org/dc/dcmitype/StillImage" /><dc:title></dc:title></cc:Work></rdf:RDF></metadata><defs
     id="defs6"><clipPath
       id="clipPath16"
       clipPathUnits="userSpaceOnUse"><path
         id="path18"
         d="m 0,595.28 841.89,0 L 841.89,0 0,0 0,595.28 Z" /></clipPath></defs><g
     transform="matrix(1.25,0,0,-1.25,-104.95112,411.80462)"
     id="g10"><g
       id="g12"><g
         clip-path="url(#clipPath16)"
         id="g14"><g
           transform="translate(149.2539,292.1074)"
           id="g20"><path
             id="path22"
             style="fill:#0059a3;fill-opacity:1;fill-rule:nonzero;stroke:none"
             d="m 0,0 6.251,18.161 c 0.507,1.521 1.013,3.632 1.183,4.815 0.168,-1.098 0.675,-3.21 1.266,-4.815 L 14.867,0 0,0 Z m -44.598,8.025 -9.377,0 0,18.499 9.377,0 c 7.687,0 11.065,-3.295 11.065,-9.377 0,-5.575 -3.125,-9.122 -11.065,-9.122 M 1.774,35.984 -19.637,-23.162 -34.715,0.085 c 8.616,2.703 12.67,8.784 12.67,17.062 0,11.235 -7.095,18.837 -22.553,18.837 l -20.695,0 0,-60.903 11.318,0 0,23.482 7.096,0 0.76,-2.026 14.022,-21.456 11.824,0 1.776,0 9.966,0 5.321,15.458 21.371,0 5.238,-15.458 11.91,0 -21.963,60.903 -11.572,0 z" /></g><g
           transform="translate(222.2842,328.0913)"
           id="g24"><path
             id="path26"
             style="fill:#0059a3;fill-opacity:1;fill-rule:nonzero;stroke:none"
             d="m 0,0 -23.483,-23.905 0,23.905 -11.319,0 0,-60.903 11.319,0 0,22.385 3.886,3.885 1.014,-2.702 18.668,-23.568 14.613,0 L -12.079,-27.03 14.867,0 0,0 Z" /></g><g
           transform="translate(250.917,292.9521)"
           id="g28"><path
             id="path30"
             style="fill:#0059a3;fill-opacity:1;fill-rule:nonzero;stroke:none"
             d="m 0,0 c 0,0.338 -0.084,1.014 -0.338,1.604 l 24.243,0 2.787,9.462 -26.692,0 0,14.613 29.227,0 0,9.461 -40.546,0 0,-60.904 40.63,0 0,9.46 L 0,-16.304 0,0 Z" /></g><g
           transform="translate(324.8262,290.9248)"
           id="g32"><path
             id="path34"
             style="fill:#0059a3;fill-opacity:1;fill-rule:nonzero;stroke:none"
             d="m 0,0 0.422,-3.717 -29.986,40.884 -9.715,0 0,-60.903 11.319,0 0,38.265 -0.338,2.449 29.903,-40.714 9.714,0 0,60.903 L 0,37.167 0,0 Z" /></g><g
           transform="translate(383.2769,290.9248)"
           id="g36"><path
             id="path38"
             style="fill:#0059a3;fill-opacity:1;fill-rule:nonzero;stroke:none"
             d="m 0,0 0.423,-3.717 -29.987,40.884 -9.714,0 0,-60.903 11.318,0 0,38.265 -0.338,2.449 29.903,-40.714 9.714,0 0,60.903 L 0,37.167 0,0 Z" /></g><g
           transform="translate(440.0391,292.5293)"
           id="g40"><path
             id="path42"
             style="fill:#0059a3;fill-opacity:1;fill-rule:nonzero;stroke:none"
             d="m 0,0 c 0,-12.247 -4.899,-16.979 -13.854,-16.979 -8.955,0 -13.685,4.647 -13.685,16.979 l 0,35.563 -11.318,0 0,-35.563 c 0,-18.837 10.306,-26.692 25.003,-26.692 14.698,0 25.172,7.855 25.172,26.692 l 0,35.563 L 0,35.563 0,0 Z" /></g><g
           transform="translate(485.2266,303.6797)"
           id="g44"><path
             id="path46"
             style="fill:#0059a3;fill-opacity:1;fill-rule:nonzero;stroke:none"
             d="m 0,0 -12.079,1.943 c -4.139,0.676 -5.744,2.112 -5.744,6.42 0,4.561 2.787,7.686 10.897,7.686 6.419,0 9.967,-2.196 12.586,-6.081 l 9.376,4.899 C 11.15,21.033 5.66,25.764 -6.926,25.764 c -16.049,0 -22.131,-8.617 -22.131,-17.401 0,-11.15 5.66,-15.796 14.445,-17.232 l 12.417,-2.027 c 5.405,-0.845 7.264,-3.717 7.264,-7.687 0,-5.491 -2.872,-9.545 -12.417,-9.545 -6.421,0 -10.475,3.294 -13.093,7.18 l -9.376,-4.901 c 3.885,-6.166 9.967,-11.994 22.553,-11.994 16.725,0 23.822,8.11 23.822,19.26 C 16.558,-6.251 9.123,-1.436 0,0" /></g><g
           transform="translate(502.2891,318.6309)"
           id="g48"><path
             id="path50"
             style="fill:#0059a3;fill-opacity:1;fill-rule:nonzero;stroke:none"
             d="m 0,0 17.484,0 0,-51.441 11.405,0 0,51.441 17.401,0 0,9.46 L 0,9.46 0,0 Z" /></g><path
           id="path52"
           style="fill:#0059a3;fill-opacity:1;fill-rule:nonzero;stroke:none"
           d="m 553.898,267.189 11.318,0 0,60.902 -11.318,0 0,-60.902 z" /><g
           transform="translate(585.5791,292.9521)"
           id="g54"><path
             id="path56"
             style="fill:#0059a3;fill-opacity:1;fill-rule:nonzero;stroke:none"
             d="m 0,0 -0.338,1.604 24.243,0 2.788,9.462 -26.693,0 0,14.613 29.228,0 0,9.461 -40.546,0 0,-60.904 40.63,0 0,9.46 L 0,-16.304 0,0 Z" /></g><g
           transform="translate(618.5205,318.6309)"
           id="g58"><path
             id="path60"
             style="fill:#0059a3;fill-opacity:1;fill-rule:nonzero;stroke:none"
             d="m 0,0 17.485,0 0,-51.441 11.405,0 0,51.441 17.4,0 0,9.46 L 0,9.46 0,0 Z" /></g><g
           transform="translate(690.9111,275.5508)"
           id="g62"><path
             id="path64"
             style="fill:#0059a3;fill-opacity:1;fill-rule:nonzero;stroke:none"
             d="m 0,0 c -11.066,0 -14.36,6.758 -14.36,22.807 0,14.36 3.21,21.371 14.36,21.371 11.234,0 14.613,-7.011 14.613,-21.371 C 14.613,6.842 11.15,0 0,0 m 0,53.892 c -21.033,0 -25.848,-14.867 -25.848,-31.085 0,-17.992 4.73,-32.437 25.848,-32.437 21.033,0 26.101,14.445 26.101,32.437 0,16.218 -5.068,31.085 -26.101,31.085" /></g><g
           transform="translate(732.4209,328.0913)"
           id="g66"><path
             id="path68"
             style="fill:#e62343;fill-opacity:1;fill-rule:nonzero;stroke:none"
             d="m 0,0 -14.698,0 25.209,-30.496 -25.136,-30.407 14.687,0 L 25.21,-30.479 0,0 Z" /></g></g></g></g></svg>